<mxfile host="app.diagrams.net" modified="2020-08-23T08:19:43.218Z" agent="5.0 (Windows NT 10.0; Win64; x64) AppleWebKit/537.36 (KHTML, like Gecko) Chrome/84.0.4147.135 Safari/537.36" etag="GD4EK59LGJF0mgj6WLYu" version="13.6.4" type="github">
  <diagram id="90Ta86XkAmWuaj6SY2SS" name="Page-1">
    <mxGraphModel dx="1038" dy="548" grid="1" gridSize="10" guides="1" tooltips="1" connect="1" arrows="1" fold="1" page="1" pageScale="1" pageWidth="827" pageHeight="1169" math="0" shadow="0">
      <root>
        <mxCell id="0" />
        <mxCell id="1" parent="0" />
        <mxCell id="8yRlqkl7cRwjEQ2-S50a-20" style="edgeStyle=orthogonalEdgeStyle;rounded=0;orthogonalLoop=1;jettySize=auto;html=1;entryX=0.5;entryY=0;entryDx=0;entryDy=0;" edge="1" parent="1" target="8yRlqkl7cRwjEQ2-S50a-19">
          <mxGeometry relative="1" as="geometry">
            <mxPoint x="105" y="80" as="sourcePoint" />
            <Array as="points">
              <mxPoint x="100" y="80" />
            </Array>
          </mxGeometry>
        </mxCell>
        <mxCell id="8yRlqkl7cRwjEQ2-S50a-21" value="Vào trang chủ" style="edgeLabel;html=1;align=center;verticalAlign=middle;resizable=0;points=[];" vertex="1" connectable="0" parent="8yRlqkl7cRwjEQ2-S50a-20">
          <mxGeometry x="-0.1927" y="1" relative="1" as="geometry">
            <mxPoint x="-1" y="11" as="offset" />
          </mxGeometry>
        </mxCell>
        <mxCell id="8yRlqkl7cRwjEQ2-S50a-4" value="index.php" style="shape=ext;rounded=1;html=1;whiteSpace=wrap;" vertex="1" parent="1">
          <mxGeometry x="40" y="230" width="120" height="80" as="geometry" />
        </mxCell>
        <mxCell id="8yRlqkl7cRwjEQ2-S50a-10" style="edgeStyle=orthogonalEdgeStyle;rounded=0;orthogonalLoop=1;jettySize=auto;html=1;entryX=0.5;entryY=1;entryDx=0;entryDy=0;" edge="1" parent="1" source="8yRlqkl7cRwjEQ2-S50a-7" target="8yRlqkl7cRwjEQ2-S50a-4">
          <mxGeometry relative="1" as="geometry" />
        </mxCell>
        <mxCell id="8yRlqkl7cRwjEQ2-S50a-13" style="edgeStyle=orthogonalEdgeStyle;rounded=0;orthogonalLoop=1;jettySize=auto;html=1;entryX=0.5;entryY=1;entryDx=0;entryDy=0;" edge="1" parent="1" source="8yRlqkl7cRwjEQ2-S50a-7" target="8yRlqkl7cRwjEQ2-S50a-12">
          <mxGeometry relative="1" as="geometry" />
        </mxCell>
        <mxCell id="8yRlqkl7cRwjEQ2-S50a-7" value="data.php" style="strokeWidth=2;html=1;shape=mxgraph.flowchart.database;whiteSpace=wrap;" vertex="1" parent="1">
          <mxGeometry x="70" y="420" width="60" height="60" as="geometry" />
        </mxCell>
        <mxCell id="8yRlqkl7cRwjEQ2-S50a-11" value="Mảng sản phẩm" style="text;html=1;align=center;verticalAlign=middle;resizable=0;points=[];autosize=1;" vertex="1" parent="1">
          <mxGeometry x="100" y="350" width="100" height="20" as="geometry" />
        </mxCell>
        <mxCell id="8yRlqkl7cRwjEQ2-S50a-41" style="edgeStyle=orthogonalEdgeStyle;rounded=0;orthogonalLoop=1;jettySize=auto;html=1;" edge="1" parent="1" source="8yRlqkl7cRwjEQ2-S50a-12" target="8yRlqkl7cRwjEQ2-S50a-17">
          <mxGeometry relative="1" as="geometry" />
        </mxCell>
        <mxCell id="8yRlqkl7cRwjEQ2-S50a-12" value="add2cart.php" style="rounded=1;whiteSpace=wrap;html=1;" vertex="1" parent="1">
          <mxGeometry x="460" y="215" width="120" height="60" as="geometry" />
        </mxCell>
        <mxCell id="8yRlqkl7cRwjEQ2-S50a-14" value="Mảng sản phẩm" style="text;html=1;align=center;verticalAlign=middle;resizable=0;points=[];autosize=1;" vertex="1" parent="1">
          <mxGeometry x="270" y="420" width="100" height="20" as="geometry" />
        </mxCell>
        <mxCell id="8yRlqkl7cRwjEQ2-S50a-42" style="edgeStyle=orthogonalEdgeStyle;rounded=0;orthogonalLoop=1;jettySize=auto;html=1;entryX=0.637;entryY=1.003;entryDx=0;entryDy=0;entryPerimeter=0;" edge="1" parent="1" source="8yRlqkl7cRwjEQ2-S50a-17" target="8yRlqkl7cRwjEQ2-S50a-18">
          <mxGeometry relative="1" as="geometry" />
        </mxCell>
        <mxCell id="8yRlqkl7cRwjEQ2-S50a-17" value="SESSION" style="shape=datastore;whiteSpace=wrap;html=1;" vertex="1" parent="1">
          <mxGeometry x="610" y="390" width="60" height="60" as="geometry" />
        </mxCell>
        <mxCell id="8yRlqkl7cRwjEQ2-S50a-18" value="cart.php" style="rounded=1;whiteSpace=wrap;html=1;arcSize=14;sketch=0;shadow=0;" vertex="1" parent="1">
          <mxGeometry x="700" y="210" width="120" height="60" as="geometry" />
        </mxCell>
        <mxCell id="8yRlqkl7cRwjEQ2-S50a-19" value="" style="aspect=fixed;perimeter=ellipsePerimeter;html=1;align=center;shadow=0;dashed=0;spacingTop=3;image;image=img/lib/active_directory/home_page.svg;sketch=0;" vertex="1" parent="1">
          <mxGeometry x="75" y="210" width="50" height="45" as="geometry" />
        </mxCell>
        <mxCell id="8yRlqkl7cRwjEQ2-S50a-39" style="edgeStyle=orthogonalEdgeStyle;rounded=0;orthogonalLoop=1;jettySize=auto;html=1;entryX=0.5;entryY=0;entryDx=0;entryDy=0;" edge="1" parent="1" source="8yRlqkl7cRwjEQ2-S50a-24" target="8yRlqkl7cRwjEQ2-S50a-29">
          <mxGeometry relative="1" as="geometry" />
        </mxCell>
        <mxCell id="8yRlqkl7cRwjEQ2-S50a-43" value="Chọn 1 sản phẩm muốn mua&lt;br&gt;Truyền sang mã SP chọn" style="edgeLabel;html=1;align=center;verticalAlign=middle;resizable=0;points=[];" vertex="1" connectable="0" parent="8yRlqkl7cRwjEQ2-S50a-39">
          <mxGeometry x="0.1462" y="-31" relative="1" as="geometry">
            <mxPoint x="31" y="31" as="offset" />
          </mxGeometry>
        </mxCell>
        <mxCell id="8yRlqkl7cRwjEQ2-S50a-24" value="" style="image;html=1;image=img/lib/clip_art/people/Suit_Man_128x128.png;shadow=0;sketch=0;" vertex="1" parent="1">
          <mxGeometry x="60" y="30" width="80" height="80" as="geometry" />
        </mxCell>
        <mxCell id="8yRlqkl7cRwjEQ2-S50a-40" style="edgeStyle=orthogonalEdgeStyle;rounded=0;orthogonalLoop=1;jettySize=auto;html=1;" edge="1" parent="1" source="8yRlqkl7cRwjEQ2-S50a-29" target="8yRlqkl7cRwjEQ2-S50a-12">
          <mxGeometry relative="1" as="geometry" />
        </mxCell>
        <mxCell id="8yRlqkl7cRwjEQ2-S50a-29" value="Danh sách SP" style="strokeColor=#dddddd;shadow=1;strokeWidth=1;rounded=1;absoluteArcSize=1;arcSize=2;sketch=0;align=left;verticalAlign=bottom;" vertex="1" parent="1">
          <mxGeometry x="270" y="200" width="90" height="90" as="geometry" />
        </mxCell>
        <mxCell id="8yRlqkl7cRwjEQ2-S50a-30" value="" style="dashed=0;connectable=0;html=1;fillColor=#757575;strokeColor=none;shape=mxgraph.gcp2.task_queues;part=1;labelPosition=right;verticalLabelPosition=middle;align=left;verticalAlign=middle;spacingLeft=5;fontSize=12;" vertex="1" parent="8yRlqkl7cRwjEQ2-S50a-29">
          <mxGeometry y="0.5" width="50" height="39.5" relative="1" as="geometry">
            <mxPoint x="5" y="-26.5" as="offset" />
          </mxGeometry>
        </mxCell>
        <mxCell id="8yRlqkl7cRwjEQ2-S50a-44" value="Mã SP" style="text;html=1;align=center;verticalAlign=middle;resizable=0;points=[];autosize=1;" vertex="1" parent="1">
          <mxGeometry x="380" y="222.5" width="50" height="20" as="geometry" />
        </mxCell>
        <mxCell id="8yRlqkl7cRwjEQ2-S50a-45" value="1 sản phẩm" style="text;html=1;align=center;verticalAlign=middle;resizable=0;points=[];autosize=1;" vertex="1" parent="1">
          <mxGeometry x="560" y="310" width="80" height="20" as="geometry" />
        </mxCell>
        <mxCell id="8yRlqkl7cRwjEQ2-S50a-46" value="Danh sách SP KH chọn" style="text;html=1;align=center;verticalAlign=middle;resizable=0;points=[];autosize=1;" vertex="1" parent="1">
          <mxGeometry x="680" y="140" width="140" height="20" as="geometry" />
        </mxCell>
        <mxCell id="8yRlqkl7cRwjEQ2-S50a-47" value="" style="html=1;verticalLabelPosition=bottom;align=center;labelBackgroundColor=#ffffff;verticalAlign=top;strokeWidth=2;strokeColor=#0080F0;shadow=0;dashed=0;shape=mxgraph.ios7.icons.shopping_cart;sketch=0;" vertex="1" parent="1">
          <mxGeometry x="735" y="179.5" width="50" height="43" as="geometry" />
        </mxCell>
        <mxCell id="8yRlqkl7cRwjEQ2-S50a-48" value="" style="html=1;verticalLabelPosition=bottom;align=center;labelBackgroundColor=#ffffff;verticalAlign=top;strokeWidth=2;strokeColor=#0080F0;shadow=0;dashed=0;shape=mxgraph.ios7.icons.add;sketch=0;" vertex="1" parent="1">
          <mxGeometry x="500" y="190" width="40" height="40" as="geometry" />
        </mxCell>
      </root>
    </mxGraphModel>
  </diagram>
</mxfile>
